@startuml

!include ../../../commons.style

skinparam ranksep 50

class Context {
  ~ changeState(s: State)
  + doSomething()
}

interface State {
  + {abstract} handle()
}

Context *-> State

class ConcreteState1 {
  + handle()
}

class ConcreteState2 {
  + handle()
}

State <|.. ConcreteState1
State <|.. ConcreteState2

@enduml
