@startuml

!include ../../../commons.style
skinparam ranksep 50


class Client

interface Target {
  + {abstract} request()
}

Client . Target

class ConcreteTarget {
  + request()
}

class Adapter {
  - pre()
  - post()
  + request()
}

Target <|.. ConcreteTarget
Target <|.. Adapter

ConcreteTarget .[hidden] Adapter


class Adaptee {
  + myVerySpecificMethod()
}

Adapter -> "1" Adaptee



@enduml
